<svg width="32" height="32" viewBox="0 0 32 32" fill="none" xmlns="http://www.w3.org/2000/svg">
<path d="M21.5868 6.69408C21.927 6.87706 22.3298 6.92516 22.7074 6.82787C23.0849 6.73058 23.4065 6.49581 23.602 6.17479C23.7637 5.90441 24.0157 5.69253 24.3183 5.57237C24.6208 5.45222 24.957 5.43058 25.2739 5.51085C25.5909 5.59112 25.8708 5.76877 26.0697 6.01593C26.2686 6.26309 26.3752 6.56578 26.3729 6.87654C26.3729 7.24877 26.2168 7.60576 25.9389 7.86897C25.661 8.13218 25.2841 8.28005 24.8911 8.28005C24.4981 8.28005 24.1213 8.42792 23.8434 8.69113C23.5655 8.95434 23.4094 9.31133 23.4094 9.68356C23.4094 10.0558 23.5655 10.4128 23.8434 10.676C24.1213 10.9392 24.4981 11.0871 24.8911 11.0871C25.6713 11.0866 26.4377 10.8916 27.1131 10.5218C27.7886 10.1519 28.3494 9.62021 28.7392 8.98005C29.1289 8.33989 29.334 7.61384 29.3337 6.87485C29.3333 6.13587 29.1277 5.40997 28.7374 4.77011C28.3471 4.13025 27.7858 3.59895 27.1101 3.22961C26.4343 2.86027 25.6678 2.6659 24.8876 2.66602C24.1074 2.66613 23.3409 2.86074 22.6653 3.23029C21.9897 3.59983 21.4286 4.1313 21.0385 4.77128C20.9405 4.93147 20.877 5.10843 20.8515 5.29198C20.826 5.47553 20.8392 5.66203 20.8901 5.84076C20.9411 6.01948 21.0289 6.18689 21.1484 6.33334C21.268 6.47979 21.417 6.60239 21.5868 6.69408ZM27.9584 16.7011C27.5695 16.6533 27.1764 16.7535 26.8653 16.9797C26.5542 17.206 26.3505 17.5399 26.2988 17.9081C25.9879 20.2873 24.7692 22.4767 22.8724 24.0639C20.9756 25.6511 18.5315 26.5267 16.0004 26.5257H7.71721L8.68037 25.6134C8.95635 25.3504 9.11126 24.9947 9.11126 24.6239C9.11126 24.2531 8.95635 23.8974 8.68037 23.6344C7.23555 22.2606 6.25229 20.5124 5.85444 18.6103C5.45659 16.7081 5.66195 14.7369 6.44464 12.9451C7.22734 11.1532 8.55237 9.62085 10.2528 8.54095C11.9533 7.46105 13.9531 6.88193 16.0004 6.87654C16.3934 6.87654 16.7703 6.72867 17.0482 6.46546C17.3261 6.20225 17.4822 5.84527 17.4822 5.47303C17.4822 5.1008 17.3261 4.74381 17.0482 4.4806C16.7703 4.21739 16.3934 4.06952 16.0004 4.06952C13.495 4.07942 11.0433 4.75758 8.92604 6.02629C6.80879 7.295 5.11168 9.10296 4.02913 11.243C2.94658 13.3831 2.52238 15.7687 2.80514 18.1266C3.0879 20.4845 4.06617 22.7192 5.62788 24.5748L3.09402 26.9327C2.88841 27.1301 2.74913 27.3807 2.69375 27.6529C2.63837 27.9252 2.66937 28.2069 2.78285 28.4625C2.89401 28.7188 3.08279 28.9382 3.32539 29.0931C3.56799 29.2479 3.85355 29.3313 4.14609 29.3327H16.0004C19.2477 29.3331 22.3835 28.2113 24.8197 26.1777C27.2559 24.1441 28.8251 21.3384 29.2328 18.2871C29.2599 18.1036 29.2484 17.9168 29.1989 17.7375C29.1494 17.5583 29.0629 17.3901 28.9444 17.2426C28.826 17.0952 28.6778 16.9714 28.5086 16.8785C28.3394 16.7855 28.1524 16.7253 27.9584 16.7011ZM25.4542 12.5888C25.1845 12.4758 24.8852 12.4416 24.5948 12.4906L24.3281 12.5748L24.0613 12.7011L23.8391 12.8836C23.7058 13.0129 23.6001 13.1654 23.5279 13.3327C23.4403 13.5077 23.3996 13.7006 23.4094 13.8941C23.405 14.0813 23.4403 14.2674 23.5131 14.4415C23.5897 14.6099 23.7005 14.7625 23.8391 14.8906C23.9775 15.0207 24.1417 15.1236 24.3223 15.1934C24.5028 15.2633 24.6961 15.2987 24.8911 15.2976C25.2841 15.2976 25.661 15.1497 25.9389 14.8865C26.2168 14.6233 26.3729 14.2663 26.3729 13.8941C26.3779 13.71 26.3373 13.5273 26.2544 13.3608C26.0952 13.0235 25.8103 12.7537 25.4542 12.6029V12.5888Z" fill="white"/>
</svg>
